<svg xmlns="http://www.w3.org/2000/svg" xmlns:xlink="http://www.w3.org/1999/xlink" width="1366" zoomAndPan="magnify" viewBox="0 0 1024.5 576" height="768" preserveAspectRatio="xMidYMid meet" version="1.0"><defs><clipPath id="8bddda22b7"><path d="M 0 0.140625 L 1024 0.140625 L 1024 575.859375 L 0 575.859375 Z M 0 0.140625 " clip-rule="nonzero"/></clipPath><clipPath id="674ad320b4"><path d="M 0 0.140625 L 1024 0.140625 L 1024 128.761719 L 0 128.761719 Z M 0 0.140625 " clip-rule="nonzero"/></clipPath><clipPath id="d2426ae474"><path d="M -5.296875 53.875 C 61.121094 34.4375 66.890625 32.925781 77.3125 30.402344 C 91.855469 26.804688 114.117188 21.402344 130.011719 18.453125 C 142.828125 16.148438 153.472656 14.636719 165.167969 13.484375 C 176.789062 12.332031 188.105469 11.972656 199.875 11.613281 C 212.019531 11.324219 224.390625 11.324219 237.058594 11.613281 C 250.402344 11.902344 263.671875 12.621094 277.988281 13.484375 C 293.804688 14.492188 313.445312 15.859375 327.839844 17.371094 C 338.933594 18.523438 347.105469 19.605469 357.226562 21.1875 C 367.945312 22.84375 379.1875 24.789062 390.359375 27.09375 C 401.828125 29.394531 410.222656 31.339844 425.214844 35.085938 C 452.578125 42.066406 510.074219 59.417969 540.808594 67.339844 C 561.050781 72.59375 577.46875 76.628906 591.484375 79.433594 C 601.230469 81.453125 608.203125 82.53125 616.597656 83.683594 C 624.992188 84.835938 633.464844 85.769531 641.859375 86.492188 C 650.332031 87.210938 658.425781 87.714844 667.199219 88.003906 C 676.792969 88.292969 685.265625 90.019531 697.183594 88.003906 C 716.222656 84.761719 744.933594 70.867188 769.074219 62.660156 C 793.363281 54.378906 814.578125 47.035156 842.3125 38.394531 C 878.371094 27.09375 922.375 14.058594 967.351562 1.460938 C 1019.75 -13.15625 1095.015625 -26.042969 1138.042969 -43.539062 C 1166.679688 -55.128906 1185.871094 -66.363281 1205.511719 -81.699219 C 1224.402344 -96.457031 1246.140625 -125.976562 1254.386719 -133.320312 C 1256.933594 -135.554688 1257.761719 -136.203125 1259.710938 -137.210938 C 1261.660156 -138.21875 1263.832031 -139.007812 1266.007812 -139.296875 C 1268.179688 -139.65625 1270.503906 -139.730469 1272.679688 -139.371094 C 1274.851562 -139.082031 1277.101562 -138.359375 1278.976562 -137.351562 C 1280.921875 -136.417969 1282.796875 -135.050781 1284.371094 -133.539062 C 1285.871094 -132.023438 1287.222656 -130.152344 1288.121094 -128.28125 C 1289.09375 -126.410156 1289.695312 -124.25 1289.996094 -122.089844 C 1290.21875 -120 1290.144531 -117.769531 1289.695312 -115.753906 C 1289.246094 -113.664062 1288.34375 -111.578125 1287.222656 -109.777344 C 1286.171875 -107.90625 1284.671875 -106.175781 1282.949219 -104.808594 C 1281.296875 -103.441406 1279.347656 -102.289062 1277.25 -101.496094 C 1275.226562 -100.707031 1272.976562 -100.203125 1270.804688 -100.058594 C 1268.628906 -99.914062 1266.230469 -100.128906 1264.132812 -100.707031 C 1262.03125 -101.28125 1259.933594 -102.144531 1258.058594 -103.371094 C 1256.261719 -104.523438 1254.535156 -106.035156 1253.1875 -107.691406 C 1251.839844 -109.34375 1250.714844 -111.363281 1250.039062 -113.378906 C 1249.289062 -115.320312 1248.914062 -117.554688 1248.914062 -119.640625 C 1248.839844 -121.800781 1249.214844 -123.960938 1249.890625 -125.976562 C 1250.5625 -127.992188 1251.6875 -130.007812 1252.960938 -131.664062 C 1254.3125 -133.394531 1255.960938 -134.90625 1257.835938 -136.128906 C 1259.632812 -137.28125 1261.734375 -138.289062 1263.832031 -138.863281 C 1265.929688 -139.441406 1268.253906 -139.730469 1270.429688 -139.585938 C 1272.679688 -139.511719 1274.925781 -139.007812 1276.949219 -138.289062 C 1279.050781 -137.496094 1281.074219 -136.34375 1282.722656 -134.976562 C 1284.371094 -133.679688 1285.945312 -131.953125 1287.070312 -130.152344 C 1288.195312 -128.351562 1289.09375 -126.265625 1289.621094 -124.25 C 1290.070312 -122.160156 1290.21875 -119.929688 1289.996094 -117.839844 C 1289.769531 -115.753906 1289.167969 -113.59375 1288.269531 -111.648438 C 1287.371094 -109.707031 1286.769531 -108.914062 1284.597656 -106.320312 C 1276.949219 -97.105469 1248.691406 -64.347656 1226.574219 -47.714844 C 1203.785156 -30.578125 1181.074219 -18.125 1149.289062 -5.453125 C 1104.535156 12.332031 1031.445312 24.789062 979.421875 39.332031 C 934.894531 51.789062 891.414062 64.675781 855.804688 75.835938 C 828.371094 84.402344 807.082031 91.675781 783.390625 99.8125 C 760.378906 107.660156 733.765625 119.25 715.625 123.785156 C 703.855469 126.667969 696.957031 127.601562 685.789062 128.105469 C 671.621094 128.828125 651.007812 126.953125 637.0625 125.800781 C 626.566406 125.011719 618.546875 124.003906 609.402344 122.707031 C 600.332031 121.410156 592.757812 120.1875 582.265625 118.027344 C 567.496094 115.003906 550.332031 110.828125 529.414062 105.425781 C 498.605469 97.433594 442.082031 80.371094 415.546875 73.601562 C 401.378906 70.003906 393.65625 68.203125 382.863281 65.972656 C 372.367188 63.8125 361.722656 62.011719 351.601562 60.425781 C 342.15625 58.914062 334.4375 57.835938 323.941406 56.753906 C 310.074219 55.316406 290.957031 53.949219 275.664062 53.011719 C 262.019531 52.148438 249.351562 51.5 236.609375 51.210938 C 224.539062 50.921875 212.621094 50.921875 201.152344 51.210938 C 190.507812 51.5 180.609375 51.789062 170.339844 52.796875 C 159.847656 53.730469 150.550781 55.027344 138.78125 57.1875 C 123.5625 59.921875 101 65.46875 87.054688 68.851562 C 77.386719 71.226562 72.4375 72.523438 62.769531 75.1875 C 48 79.292969 15.691406 89.585938 7.21875 91.601562 C 4.746094 92.25 3.996094 92.394531 2.347656 92.539062 C 0.699219 92.609375 -1.027344 92.539062 -2.601562 92.25 C -4.25 91.964844 -5.898438 91.53125 -7.398438 90.882812 C -8.898438 90.234375 -10.320312 89.371094 -11.671875 88.433594 C -12.945312 87.425781 -14.144531 86.273438 -15.195312 85.050781 C -16.242188 83.828125 -17.066406 82.460938 -17.816406 81.019531 C -18.492188 79.578125 -19.015625 77.996094 -19.316406 76.484375 C -19.617188 74.898438 -19.691406 73.242188 -19.617188 71.660156 C -19.542969 70.148438 -19.242188 68.492188 -18.792969 66.980469 C -18.265625 65.46875 -17.59375 63.957031 -16.769531 62.660156 C -15.941406 61.292969 -14.894531 59.996094 -13.695312 58.84375 C -12.570312 57.691406 -11.21875 56.683594 -9.796875 55.890625 C -8.445312 55.027344 -5.296875 53.875 -5.296875 53.875 " clip-rule="nonzero"/></clipPath><clipPath id="f3d8c4d464"><path d="M 0 0.140625 L 1024 0.140625 L 1024 72 L 0 72 Z M 0 0.140625 " clip-rule="nonzero"/></clipPath><clipPath id="91fff067d5"><path d="M -77.339844 23.054688 C -52.300781 -20.722656 -33.335938 -36.839844 -32.808594 -37.292969 C -32.808594 -37.367188 -32.808594 -37.292969 -32.808594 -37.367188 C -32.660156 -37.667969 -30.9375 -45.011719 -32.660156 -48.234375 C -34.910156 -52.507812 -45.554688 -52.808594 -48.402344 -58.882812 C -52.976562 -68.625 -49.976562 -96.886719 -43.605469 -108.058594 C -38.882812 -116.453125 -25.988281 -117.652344 -21.414062 -124.550781 C -17.21875 -130.847656 -17.21875 -142.316406 -15.867188 -146.8125 C -15.34375 -148.835938 -14.894531 -149.660156 -14.445312 -151.085938 C -13.917969 -152.511719 -12.945312 -155.285156 -12.945312 -155.359375 C -12.871094 -155.359375 -11.296875 -157.832031 -10.472656 -159.105469 C -9.644531 -160.382812 -7.996094 -162.855469 -7.996094 -162.929688 C -7.921875 -162.929688 -5.75 -164.953125 -4.699219 -166.003906 C -3.574219 -166.976562 -1.398438 -169.003906 -1.398438 -169.078125 C -1.324219 -169.078125 -1.324219 -169.078125 -1.324219 -169.078125 C -1.324219 -169.078125 1.296875 -170.5 2.574219 -171.25 C 3.921875 -172 6.472656 -173.425781 6.546875 -173.425781 C 6.621094 -173.5 9.46875 -174.25 10.894531 -174.625 C 12.316406 -175.074219 15.167969 -175.824219 15.242188 -175.824219 C 15.316406 -175.824219 18.238281 -175.898438 19.738281 -175.972656 C 21.238281 -175.972656 24.238281 -176.046875 24.3125 -176.046875 C 24.3125 -176.046875 27.234375 -175.449219 28.660156 -175.074219 C 30.160156 -174.773438 33.082031 -174.175781 33.082031 -174.101562 C 33.15625 -174.101562 35.78125 -172.824219 37.132812 -172.152344 C 38.480469 -171.476562 41.179688 -170.203125 41.179688 -170.125 C 41.253906 -170.125 43.503906 -168.175781 44.703125 -167.203125 C 45.828125 -166.226562 48.074219 -164.355469 48.152344 -164.28125 C 48.152344 -164.28125 49.875 -161.878906 50.773438 -160.679688 C 51.671875 -159.40625 53.398438 -157.082031 53.472656 -157.007812 C 53.472656 -157.007812 53.546875 -155.734375 54.074219 -155.433594 C 55.273438 -154.835938 60.070312 -155.660156 62.84375 -157.15625 C 66.292969 -158.957031 67.191406 -163.828125 72.511719 -166.753906 C 84.28125 -173.273438 118.691406 -178.972656 138.929688 -182.269531 C 155.648438 -185.042969 169.515625 -185.792969 185.109375 -186.84375 C 201.152344 -188.042969 217.867188 -188.71875 233.910156 -188.941406 C 249.652344 -189.09375 265.621094 -188.792969 280.460938 -187.96875 C 294.253906 -187.21875 305.648438 -186.09375 320.269531 -184.292969 C 338.332031 -182.046875 362.546875 -177.847656 380.613281 -175.074219 C 395.304688 -172.75 410 -170.125 420.570312 -168.777344 C 427.390625 -167.878906 436.160156 -166.152344 437.585938 -167.054688 C 437.886719 -167.277344 437.808594 -167.878906 437.886719 -167.953125 C 437.886719 -168.027344 439.460938 -170.5 440.285156 -171.699219 C 441.109375 -172.976562 442.757812 -175.449219 442.757812 -175.523438 C 442.832031 -175.523438 445.007812 -177.546875 446.054688 -178.597656 C 447.179688 -179.648438 449.355469 -181.671875 449.355469 -181.671875 C 449.429688 -181.746094 451.976562 -183.171875 453.328125 -183.917969 C 454.601562 -184.59375 457.226562 -186.09375 457.226562 -186.09375 C 457.300781 -186.09375 460.148438 -186.917969 461.648438 -187.292969 C 463.074219 -187.667969 464.046875 -188.042969 465.996094 -188.492188 C 469.667969 -189.316406 475.21875 -190.214844 482.414062 -191.191406 C 495.832031 -193.140625 521.394531 -196.214844 540.511719 -197.9375 C 558.953125 -199.585938 576.492188 -200.710938 595.234375 -201.386719 C 614.949219 -202.0625 639.535156 -200.335938 655.953125 -201.761719 C 667.347656 -202.8125 673.871094 -205.058594 684.515625 -206.707031 C 698.007812 -208.808594 715.699219 -211.355469 730.394531 -213.003906 C 743.886719 -214.65625 754.753906 -216.003906 769.296875 -216.828125 C 787.664062 -217.878906 812.402344 -219.226562 831.816406 -217.878906 C 849.132812 -216.679688 865.402344 -214.429688 880.394531 -210.230469 C 894.261719 -206.332031 908.65625 -199.511719 918.925781 -194.339844 C 926.121094 -190.667969 929.195312 -186.019531 936.691406 -183.394531 C 946.960938 -179.796875 960.003906 -180.996094 976.046875 -178.597656 C 1001.535156 -174.773438 1074.023438 -160.980469 1074.398438 -160.90625 C 1074.550781 -160.90625 1077.398438 -160.605469 1078.898438 -160.382812 C 1080.398438 -160.230469 1083.320312 -159.855469 1083.394531 -159.855469 C 1083.46875 -159.855469 1086.242188 -158.808594 1087.59375 -158.28125 C 1089.015625 -157.683594 1091.792969 -156.707031 1091.867188 -156.632812 C 1091.941406 -156.632812 1094.339844 -154.910156 1095.539062 -154.085938 C 1096.8125 -153.261719 1099.210938 -151.535156 1099.289062 -151.535156 C 1099.363281 -151.460938 1101.3125 -149.285156 1102.285156 -148.164062 C 1103.261719 -147.039062 1105.285156 -144.789062 1105.285156 -144.789062 C 1105.285156 -144.714844 1106.707031 -142.089844 1107.382812 -140.742188 C 1108.058594 -139.390625 1109.484375 -136.84375 1109.484375 -136.769531 C 1109.484375 -136.691406 1110.230469 -133.84375 1110.605469 -132.34375 C 1110.90625 -130.921875 1111.65625 -128.070312 1111.65625 -127.996094 C 1111.65625 -127.921875 1111.65625 -125 1111.65625 -123.5 C 1111.65625 -121.925781 1111.65625 -119 1111.65625 -118.925781 C 1111.65625 -118.851562 1110.90625 -116.003906 1110.605469 -114.578125 C 1110.230469 -113.078125 1109.558594 -110.230469 1109.484375 -110.15625 C 1109.484375 -110.082031 1108.132812 -107.53125 1107.382812 -106.183594 C 1106.707031 -104.832031 1105.359375 -102.210938 1105.285156 -102.210938 C 1105.285156 -102.136719 1105.285156 -102.136719 1105.285156 -102.136719 C 1105.285156 -102.136719 1103.335938 -99.886719 1102.285156 -98.761719 C 1101.3125 -97.636719 1099.363281 -95.464844 1099.289062 -95.386719 C 1099.289062 -95.386719 1096.8125 -93.664062 1095.613281 -92.839844 C 1094.339844 -92.015625 1091.941406 -90.289062 1091.867188 -90.289062 C 1091.792969 -90.214844 1089.09375 -89.167969 1087.667969 -88.640625 C 1086.242188 -88.117188 1083.46875 -87.066406 1083.46875 -87.066406 C 1083.394531 -87.066406 1083.394531 -87.066406 1083.394531 -87.066406 C 1083.394531 -87.066406 1080.472656 -86.691406 1078.972656 -86.542969 C 1077.472656 -86.316406 1076.421875 -86.09375 1074.472656 -85.941406 C 1070.5 -85.71875 1057.832031 -87.367188 1056.707031 -85.941406 C 1056.332031 -85.492188 1057.308594 -84.96875 1057.007812 -84.21875 C 1055.132812 -80.246094 1027.773438 -58.804688 1012.929688 -57.605469 C 999.0625 -56.40625 977.472656 -70.800781 970.800781 -74.171875 C 968.550781 -75.296875 967.875 -77.171875 966.453125 -76.796875 C 964.503906 -76.347656 964.578125 -70.351562 960.828125 -68.027344 C 951.683594 -62.328125 919.75 -60.679688 900.785156 -60.980469 C 883.691406 -61.28125 857.679688 -69.074219 852.132812 -68.25 C 850.859375 -68.101562 850.785156 -67.652344 849.960938 -67.203125 C 848.835938 -66.675781 845.910156 -65.328125 845.910156 -65.253906 C 845.835938 -65.253906 842.914062 -64.652344 841.488281 -64.351562 C 839.988281 -64.054688 837.066406 -63.453125 837.066406 -63.453125 C 836.992188 -63.453125 834.066406 -63.527344 832.492188 -63.605469 C 830.992188 -63.679688 828.070312 -63.753906 827.996094 -63.753906 C 827.996094 -63.753906 827.320312 -63.902344 827.171875 -63.753906 C 826.945312 -63.605469 826.945312 -63.078125 826.945312 -63.078125 C 826.871094 -63.003906 825.296875 -60.53125 824.472656 -59.332031 C 823.648438 -58.054688 822.074219 -55.582031 821.996094 -55.507812 C 821.996094 -55.433594 819.824219 -53.410156 818.699219 -52.433594 C 817.648438 -51.382812 815.476562 -49.359375 815.402344 -49.285156 C 815.402344 -49.285156 812.777344 -47.859375 811.503906 -47.113281 C 810.152344 -46.363281 807.605469 -44.9375 807.53125 -44.863281 C 807.453125 -44.863281 804.605469 -44.039062 803.183594 -43.664062 C 801.757812 -43.289062 798.910156 -42.464844 798.835938 -42.464844 C 798.757812 -42.464844 795.835938 -42.390625 794.335938 -42.3125 C 792.835938 -42.3125 789.914062 -42.164062 789.839844 -42.164062 C 789.6875 -42.164062 760.078125 -40.363281 742.613281 -40.289062 C 720.796875 -40.140625 694.636719 -41.488281 668.921875 -42.464844 C 640.8125 -43.511719 593.210938 -46.0625 580.617188 -46.585938 C 577.167969 -46.738281 577.390625 -46.886719 574.019531 -46.886719 C 562.25 -46.8125 520.34375 -44.9375 495.230469 -43.136719 C 472.292969 -41.488281 429.5625 -36.691406 429.414062 -36.691406 C 429.339844 -36.691406 426.414062 -36.542969 424.917969 -36.46875 C 423.417969 -36.390625 420.492188 -36.242188 420.417969 -36.242188 C 420.34375 -36.242188 417.421875 -36.839844 415.996094 -37.140625 C 414.496094 -37.441406 411.574219 -37.964844 411.574219 -37.964844 C 411.5 -37.964844 408.800781 -39.242188 407.449219 -39.914062 C 406.101562 -40.515625 403.402344 -41.714844 403.328125 -41.789062 C 403.253906 -41.789062 400.929688 -43.738281 399.804688 -44.636719 C 398.90625 -45.386719 398.679688 -46.285156 397.179688 -46.738281 C 392.007812 -48.234375 371.917969 -44.789062 359.398438 -43.0625 C 346.878906 -41.339844 332.410156 -38.640625 321.917969 -36.390625 C 314.269531 -34.742188 304.300781 -35.71875 302.203125 -31.445312 C 299.726562 -26.347656 314.71875 -13.902344 313.671875 -5.058594 C 312.472656 5.289062 298.679688 21.328125 290.28125 26.128906 C 284.511719 29.351562 277.238281 27.328125 272.214844 28.078125 C 268.769531 28.601562 265.394531 29.726562 263.296875 29.726562 C 262.097656 29.800781 261.273438 29.425781 260.597656 29.351562 C 260.222656 29.351562 260.070312 29.425781 259.546875 29.5 C 258.125 29.726562 251.300781 31.074219 251.152344 31.074219 C 251.152344 31.074219 251.152344 31 251.152344 31 C 251.152344 31 251.152344 31.074219 251.152344 31.074219 C 251.152344 31.074219 248.226562 30.101562 246.804688 29.652344 C 245.378906 29.199219 242.53125 28.375 242.53125 28.300781 C 242.457031 28.300781 239.90625 26.726562 238.632812 25.976562 C 237.359375 25.226562 234.808594 23.652344 234.808594 23.652344 C 234.734375 23.578125 232.410156 21.253906 231.585938 20.429688 C 231.0625 19.90625 231.136719 19.457031 230.386719 19.15625 C 227.539062 18.179688 216.21875 20.429688 207.824219 21.703125 C 196.878906 23.355469 182.785156 25.078125 170.566406 28.601562 C 157.898438 32.273438 145.753906 39.171875 133.234375 43.667969 C 120.789062 48.015625 108.421875 52.890625 95.753906 55.214844 C 83.234375 57.613281 70.414062 56.5625 57.671875 57.988281 C 44.628906 59.335938 31.507812 61.359375 18.539062 63.609375 C 5.496094 65.859375 -7.847656 72.53125 -20.441406 71.480469 C -32.808594 70.507812 -47.054688 65.785156 -56.5 57.835938 C -66.167969 49.816406 -77.339844 23.054688 -77.339844 23.054688 " clip-rule="nonzero"/></clipPath><clipPath id="10a24c384b"><path d="M 225.132812 0.140625 L 839.253906 0.140625 L 839.253906 113 L 225.132812 113 Z M 225.132812 0.140625 " clip-rule="nonzero"/></clipPath><clipPath id="a1602d0e54"><path d="M 225.140625 -4.90625 C 226.039062 -16.902344 226.863281 -19.824219 228.0625 -22.597656 C 229.261719 -25.371094 230.835938 -27.996094 232.636719 -30.394531 C 234.433594 -32.792969 236.609375 -35.042969 238.933594 -36.917969 C 241.257812 -38.789062 243.878906 -40.363281 246.578125 -41.640625 C 249.351562 -42.914062 255.199219 -44.488281 255.199219 -44.488281 C 255.199219 -44.488281 282.035156 -49.960938 293.429688 -52.058594 C 302.652344 -53.707031 315.320312 -51.609375 318.46875 -56.183594 C 321.316406 -60.15625 311.871094 -70.800781 314.871094 -75.597656 C 319.066406 -82.269531 339.457031 -84.21875 352.128906 -85.867188 C 364.796875 -87.515625 377.464844 -86.09375 390.957031 -85.566406 C 405.652344 -85.042969 422.144531 -82.871094 436.910156 -82.269531 C 450.628906 -81.746094 471.992188 -81.96875 476.714844 -81.894531 C 477.765625 -81.894531 477.914062 -81.96875 478.664062 -81.894531 C 479.789062 -81.820312 481.664062 -81.519531 483.089844 -81.371094 C 484.585938 -81.144531 487.585938 -80.84375 487.585938 -80.769531 C 487.660156 -80.769531 490.433594 -79.722656 491.859375 -79.195312 C 493.207031 -78.671875 495.980469 -77.621094 496.058594 -77.546875 C 496.132812 -77.546875 498.53125 -75.824219 499.730469 -74.996094 C 501.003906 -74.097656 503.402344 -72.449219 503.476562 -72.375 C 503.476562 -72.375 504.453125 -70.351562 505.503906 -70.050781 C 507.601562 -69.601562 511.800781 -74.847656 516.371094 -74.546875 C 524.769531 -74.097656 550.179688 -56.332031 551.453125 -55.433594 C 551.53125 -55.359375 551.53125 -55.28125 551.53125 -55.28125 C 551.605469 -55.28125 551.605469 -55.65625 551.605469 -55.957031 C 551.679688 -56.78125 552.054688 -60.378906 552.054688 -60.457031 C 552.054688 -60.53125 553.027344 -63.304688 553.554688 -64.726562 C 554.003906 -66.152344 554.976562 -68.925781 554.976562 -69 C 555.054688 -69.074219 556.628906 -71.476562 557.453125 -72.75 C 558.277344 -74.023438 559.925781 -76.496094 559.925781 -76.570312 C 560 -76.570312 562.175781 -78.597656 563.222656 -79.644531 C 564.347656 -80.695312 566.523438 -82.71875 566.523438 -82.71875 C 566.597656 -82.792969 569.144531 -84.21875 570.496094 -84.894531 C 571.84375 -85.644531 574.394531 -87.140625 574.46875 -87.140625 C 574.46875 -87.140625 577.316406 -87.890625 578.816406 -88.339844 C 580.242188 -88.714844 583.089844 -89.539062 583.164062 -89.539062 C 583.238281 -89.539062 586.164062 -89.617188 587.664062 -89.617188 C 589.160156 -89.691406 592.160156 -89.765625 592.160156 -89.765625 C 592.234375 -89.765625 595.160156 -89.089844 596.582031 -88.792969 C 598.082031 -88.492188 600.929688 -87.816406 601.003906 -87.816406 C 601.082031 -87.816406 603.703125 -86.46875 605.054688 -85.867188 C 606.402344 -85.191406 609.101562 -83.84375 609.101562 -83.84375 C 609.175781 -83.84375 611.425781 -81.894531 612.550781 -80.921875 C 613.75 -79.945312 616 -78.070312 616.074219 -78.070312 C 616.074219 -77.996094 616.074219 -77.996094 616.074219 -77.996094 C 616.074219 -77.996094 617.796875 -75.597656 618.695312 -74.398438 C 619.597656 -73.199219 621.320312 -70.800781 621.394531 -70.726562 C 621.394531 -70.648438 622.519531 -67.953125 623.046875 -66.527344 C 623.644531 -65.179688 624.769531 -62.402344 624.769531 -62.402344 C 624.84375 -62.328125 625.21875 -59.40625 625.445312 -57.90625 C 625.667969 -56.40625 626.042969 -54.457031 626.117188 -53.410156 C 626.195312 -52.882812 626.195312 -52.734375 626.195312 -52.210938 C 626.117188 -51.085938 624.917969 -48.160156 625.96875 -47.113281 C 627.691406 -45.3125 637.8125 -48.835938 640.511719 -46.960938 C 642.535156 -45.613281 641.335938 -41.191406 643.210938 -40.066406 C 645.683594 -38.640625 652.128906 -44.113281 655.953125 -42.089844 C 662.402344 -38.566406 670.796875 -10.90625 671.320312 -7.90625 C 671.394531 -7.457031 671.246094 -7.457031 671.320312 -7.082031 C 671.472656 -6.332031 672.371094 -4.457031 672.894531 -3.109375 C 673.496094 -1.757812 674.621094 1.015625 674.621094 1.015625 C 674.621094 1.089844 675.070312 4.011719 675.21875 5.511719 C 675.445312 7.011719 675.894531 9.933594 675.894531 10.011719 C 675.894531 10.085938 675.59375 13.007812 675.445312 14.507812 C 675.292969 16.007812 674.996094 18.929688 674.996094 19.007812 C 674.996094 19.007812 673.945312 20.957031 673.796875 22.453125 C 673.496094 25.152344 672.820312 31.300781 675.371094 33.847656 C 679.042969 37.371094 691.035156 36.847656 698.90625 36.546875 C 706.929688 36.246094 722.445312 32.875 723.046875 31.824219 C 723.121094 31.75 723.046875 31.675781 722.972656 31.523438 C 722.746094 31.148438 722.222656 30.476562 721.921875 29.726562 C 721.546875 28.675781 721.472656 27.101562 721.171875 25.753906 C 720.796875 24.476562 720.046875 22.980469 719.898438 21.855469 C 719.824219 21.105469 720.046875 20.503906 719.972656 19.832031 C 719.898438 19.15625 719.597656 18.632812 719.597656 17.882812 C 719.523438 16.757812 719.972656 15.183594 720.121094 13.832031 C 720.199219 12.484375 719.972656 10.835938 720.199219 9.785156 C 720.347656 8.960938 720.722656 8.511719 720.871094 7.835938 C 721.023438 7.160156 720.945312 6.5625 721.171875 5.8125 C 721.472656 4.761719 722.371094 3.414062 722.972656 2.140625 C 723.496094 0.941406 723.796875 -0.710938 724.320312 -1.683594 C 724.695312 -2.359375 725.21875 -2.660156 725.59375 -3.257812 C 725.96875 -3.78125 726.042969 -4.457031 726.496094 -5.058594 C 727.09375 -5.957031 728.445312 -6.929688 729.34375 -7.980469 C 730.242188 -8.957031 731.066406 -10.378906 731.890625 -11.128906 C 732.417969 -11.652344 733.015625 -11.804688 733.542969 -12.253906 C 734.066406 -12.703125 734.367188 -13.226562 735.039062 -13.679688 C 735.863281 -14.351562 737.4375 -14.878906 738.636719 -15.550781 C 739.839844 -16.226562 741.039062 -17.277344 742.011719 -17.726562 C 742.761719 -18.027344 743.359375 -18.027344 744.035156 -18.25 C 744.636719 -18.476562 745.085938 -18.925781 745.835938 -19.148438 C 746.882812 -19.449219 748.535156 -19.449219 749.882812 -19.75 C 751.15625 -19.976562 751.757812 -20.425781 753.78125 -20.722656 C 760.304688 -21.699219 782.191406 -24.996094 795.761719 -22.597656 C 809.628906 -20.125 829.71875 -16.601562 836.015625 -5.957031 C 843.136719 6.039062 837.289062 35.421875 830.019531 49.589844 C 823.796875 61.660156 810.378906 68.480469 799.957031 76.503906 C 789.839844 84.222656 779.644531 91.945312 768.324219 96.96875 C 757.003906 101.992188 744.484375 104.164062 731.96875 106.636719 C 719 109.261719 705.203125 111.4375 691.785156 112.1875 C 678.667969 112.859375 664.050781 113.910156 652.355469 111.136719 C 642.011719 108.738281 629.941406 99.066406 624.695312 98.167969 C 622.746094 97.792969 620.570312 98.542969 620.496094 98.542969 C 620.421875 98.542969 617.496094 98.167969 616.074219 97.941406 C 614.574219 97.71875 611.652344 97.269531 611.574219 97.269531 C 611.5 97.269531 608.800781 96.144531 607.378906 95.542969 C 606.027344 95.019531 603.253906 93.894531 603.179688 93.894531 C 603.179688 93.820312 602.878906 93.445312 602.355469 93.21875 C 599.429688 92.320312 571.546875 93.746094 571.171875 93.667969 C 571.171875 93.746094 568.171875 93.292969 566.671875 93.070312 C 565.171875 92.84375 562.25 92.46875 562.25 92.46875 C 562.175781 92.46875 559.402344 91.347656 558.050781 90.820312 C 556.628906 90.222656 553.855469 89.171875 553.855469 89.097656 C 553.777344 89.097656 551.378906 87.371094 550.179688 86.472656 C 548.90625 85.648438 546.507812 83.925781 546.507812 83.847656 C 546.433594 83.847656 544.183594 81.226562 543.507812 80.476562 C 543.207031 80.027344 543.132812 79.578125 542.683594 79.425781 C 541.785156 79.125 538.710938 80.699219 537.585938 80.699219 C 537.0625 80.699219 536.835938 80.402344 536.460938 80.402344 C 535.789062 80.402344 534.363281 81.152344 534.363281 81.152344 C 534.289062 81.152344 531.363281 81.449219 529.867188 81.601562 C 528.367188 81.75 525.441406 82.125 525.367188 82.125 C 525.292969 82.125 522.367188 81.675781 520.871094 81.527344 C 519.371094 81.300781 516.445312 80.925781 516.371094 80.925781 C 516.371094 80.851562 513.597656 79.800781 512.175781 79.203125 C 510.824219 78.675781 508.050781 77.628906 507.976562 77.550781 C 507.75 77.550781 468.84375 82.648438 462.847656 76.277344 C 458.726562 71.855469 466.222656 56.636719 463.597656 54.390625 C 461.949219 52.964844 459.25 55.4375 455.425781 55.8125 C 446.355469 56.5625 423.117188 60.011719 409.472656 55.964844 C 396.65625 52.140625 387.882812 36.996094 375.589844 33.625 C 363.371094 30.25 349.429688 36.773438 335.933594 35.496094 C 321.542969 34.148438 291.929688 25.453125 291.855469 25.078125 C 291.855469 25.078125 292.007812 25.078125 292.007812 25.078125 C 292.007812 25.003906 291.707031 25.003906 291.558594 24.929688 C 291.332031 24.929688 291.257812 24.851562 290.957031 24.851562 C 288.933594 24.851562 275.363281 28.300781 269.742188 29.050781 C 266.144531 29.574219 263.746094 29.875 260.746094 29.726562 C 257.75 29.574219 254.75 29.050781 251.824219 28.226562 C 248.976562 27.402344 246.128906 26.128906 243.582031 24.628906 C 240.957031 23.128906 238.484375 21.253906 236.382812 19.15625 C 234.210938 17.058594 232.261719 14.660156 230.6875 12.109375 C 229.113281 9.636719 227.761719 6.785156 226.863281 3.9375 C 225.964844 1.089844 225.140625 -4.90625 225.140625 -4.90625 " clip-rule="nonzero"/></clipPath><clipPath id="943aaf7813"><path d="M 521.839844 0.140625 L 786.769531 0.140625 L 786.769531 64.546875 L 521.839844 64.546875 Z M 521.839844 0.140625 " clip-rule="nonzero"/></clipPath><clipPath id="0ce24c96c6"><path d="M 521.84375 -50.183594 C 558.800781 -96.210938 573.71875 -101.761719 586.539062 -108.882812 C 599.058594 -115.851562 617.199219 -125.375 624.019531 -128.898438 C 626.566406 -130.171875 627.617188 -130.847656 629.265625 -131.519531 C 630.617188 -132.046875 631.890625 -132.195312 633.164062 -132.71875 C 634.363281 -133.167969 635.789062 -133.996094 636.839844 -134.292969 C 637.585938 -134.519531 638.261719 -134.367188 638.863281 -134.445312 C 639.535156 -134.59375 640.0625 -134.96875 640.8125 -135.042969 C 641.9375 -135.195312 643.585938 -134.894531 644.933594 -134.96875 C 646.285156 -134.96875 647.859375 -135.34375 648.980469 -135.269531 C 649.730469 -135.195312 650.257812 -134.894531 650.929688 -134.820312 C 651.605469 -134.667969 652.207031 -134.894531 652.957031 -134.742188 C 654.078125 -134.519531 655.503906 -133.695312 656.777344 -133.320312 C 658.054688 -132.945312 659.703125 -132.792969 660.75 -132.34375 C 661.425781 -132.046875 661.800781 -131.519531 662.402344 -131.21875 C 663.074219 -130.921875 663.675781 -130.921875 664.351562 -130.546875 C 665.324219 -130.019531 666.449219 -128.820312 667.5 -127.996094 C 668.621094 -127.246094 670.121094 -126.574219 670.945312 -125.824219 C 671.546875 -125.296875 671.769531 -124.699219 672.222656 -124.25 C 672.671875 -123.722656 673.269531 -123.574219 673.796875 -122.976562 C 674.542969 -122.148438 675.21875 -120.652344 675.96875 -119.527344 C 676.792969 -118.402344 677.992188 -117.351562 678.519531 -116.378906 C 678.894531 -115.703125 678.96875 -115.027344 679.265625 -114.429688 C 679.566406 -113.828125 680.015625 -113.453125 680.316406 -112.703125 C 680.765625 -111.730469 680.917969 -110.082031 681.292969 -108.804688 C 681.742188 -107.53125 682.492188 -106.109375 682.714844 -104.984375 C 682.867188 -104.234375 682.714844 -103.632812 682.789062 -102.960938 C 682.867188 -102.285156 683.242188 -101.761719 683.242188 -100.933594 C 683.390625 -99.886719 682.941406 -98.238281 682.941406 -96.886719 C 682.941406 -95.539062 683.164062 -93.964844 683.015625 -92.839844 C 682.941406 -92.089844 682.566406 -91.566406 682.414062 -90.890625 C 682.339844 -90.214844 682.492188 -89.617188 682.265625 -88.867188 C 682.042969 -87.816406 681.140625 -86.390625 680.691406 -85.117188 C 680.242188 -83.917969 680.015625 -82.269531 679.492188 -81.296875 C 679.117188 -80.546875 678.667969 -80.171875 678.292969 -79.644531 C 677.992188 -79.046875 677.917969 -78.371094 677.46875 -77.773438 C 676.867188 -76.796875 675.667969 -75.746094 674.769531 -74.699219 C 673.945312 -73.648438 673.195312 -72.222656 672.445312 -71.398438 C 671.847656 -70.875 671.246094 -70.648438 670.796875 -70.199219 C 670.273438 -69.75 670.046875 -69.226562 669.371094 -68.699219 C 668.546875 -68.027344 666.972656 -67.425781 665.847656 -66.675781 C 664.726562 -66.003906 662.550781 -64.351562 662.550781 -64.351562 C 662.550781 -64.351562 658.800781 -62.480469 657.378906 -61.730469 C 656.328125 -61.203125 654.605469 -60.828125 654.605469 -60.304688 C 654.828125 -59.105469 670.648438 -59.554688 672.820312 -56.707031 C 674.246094 -54.757812 671.394531 -49.585938 672.222656 -48.835938 C 672.671875 -48.386719 673.269531 -49.136719 674.46875 -49.210938 C 679.566406 -49.585938 710.453125 -50.933594 714.5 -48.386719 C 715.550781 -47.636719 714.800781 -46.285156 715.773438 -45.761719 C 717.796875 -44.710938 725.445312 -47.410156 729.269531 -47.9375 C 732.042969 -48.3125 734.441406 -48.386719 736.539062 -48.6875 C 738.113281 -48.984375 739.3125 -49.359375 740.738281 -49.660156 C 742.160156 -50.035156 745.011719 -50.710938 745.085938 -50.710938 C 745.160156 -50.710938 748.082031 -50.710938 749.65625 -50.636719 C 751.15625 -50.636719 754.082031 -50.636719 754.15625 -50.636719 C 754.230469 -50.636719 757.078125 -49.886719 758.503906 -49.511719 C 760.003906 -49.136719 762.851562 -48.386719 762.851562 -48.386719 C 762.925781 -48.386719 762.925781 -48.386719 762.925781 -48.386719 C 762.925781 -48.3125 765.550781 -46.960938 766.898438 -46.210938 C 768.175781 -45.460938 770.796875 -44.113281 770.871094 -44.039062 C 770.871094 -44.039062 773.046875 -42.015625 774.171875 -41.039062 C 775.296875 -39.988281 777.46875 -38.042969 777.542969 -37.964844 C 777.542969 -37.964844 779.195312 -35.492188 780.09375 -34.21875 C 780.917969 -33.019531 782.566406 -30.542969 782.566406 -30.542969 C 782.566406 -30.46875 782.566406 -30.46875 782.566406 -30.46875 C 782.640625 -30.46875 783.617188 -27.695312 784.140625 -26.273438 C 784.667969 -24.847656 785.714844 -22.074219 785.714844 -22 C 785.714844 -22 786.015625 -19 786.164062 -17.5 C 786.390625 -16 786.691406 -13.078125 786.691406 -13.078125 C 786.691406 -13.078125 786.691406 -13.078125 786.691406 -13.003906 C 786.691406 -13.003906 786.316406 -10.078125 786.089844 -8.582031 C 785.867188 -7.082031 785.492188 -4.15625 785.492188 -4.082031 C 785.492188 -4.007812 784.367188 -1.308594 783.839844 0.117188 C 783.316406 1.539062 782.265625 4.238281 782.191406 4.3125 C 782.191406 4.386719 780.46875 6.785156 779.570312 7.988281 C 778.742188 9.261719 777.019531 11.660156 777.019531 11.734375 C 776.945312 11.734375 774.695312 13.683594 773.570312 14.660156 C 772.445312 15.632812 770.199219 17.582031 770.125 17.65625 C 770.125 17.65625 767.5 19.007812 766.148438 19.679688 C 764.800781 20.355469 762.175781 21.703125 762.101562 21.703125 C 761.953125 21.855469 742.613281 47.117188 733.914062 49.816406 C 728.367188 51.464844 719.972656 46.367188 718.097656 46.742188 C 717.722656 46.816406 717.796875 46.96875 717.347656 47.191406 C 714.425781 48.765625 687.289062 59.5625 682.117188 61.359375 C 680.691406 61.886719 680.316406 61.960938 679.265625 62.183594 C 677.992188 62.484375 676.34375 62.785156 674.917969 63.160156 C 673.421875 63.460938 670.496094 64.058594 670.496094 64.058594 C 670.421875 64.058594 667.421875 63.984375 665.925781 63.910156 C 664.425781 63.835938 661.5 63.757812 661.425781 63.757812 C 661.351562 63.757812 658.503906 62.933594 657.078125 62.558594 C 655.652344 62.109375 652.804688 61.359375 652.730469 61.359375 C 652.65625 61.285156 650.105469 59.859375 648.832031 59.113281 C 647.484375 58.363281 644.933594 56.9375 644.859375 56.863281 C 644.859375 56.863281 642.683594 54.761719 641.5625 53.789062 C 640.511719 52.738281 638.335938 50.714844 638.335938 50.640625 C 638.261719 50.640625 636.6875 48.09375 635.863281 46.890625 C 635.039062 45.617188 633.464844 43.144531 633.390625 43.070312 C 633.390625 42.996094 632.414062 40.222656 631.964844 38.796875 C 631.441406 37.371094 630.542969 34.597656 630.464844 34.523438 C 630.464844 34.523438 630.542969 34.296875 630.464844 34.148438 C 630.015625 33.324219 625.742188 30.773438 623.792969 28.675781 C 621.695312 26.578125 619.820312 24.027344 618.324219 21.480469 C 616.824219 18.855469 615.398438 15.40625 614.800781 13.160156 C 614.347656 11.660156 614.949219 10.460938 614.125 9.261719 C 613 7.613281 610 5.585938 607.078125 4.839844 C 603.179688 3.863281 598.757812 6.039062 592.609375 5.585938 C 581.515625 4.839844 558.277344 5.363281 546.65625 -3.257812 C 534.214844 -12.480469 521.84375 -50.183594 521.84375 -50.183594 " clip-rule="nonzero"/></clipPath><clipPath id="adbd4d9e9d"><path d="M 725.019531 0.140625 L 1024 0.140625 L 1024 6.722656 L 725.019531 6.722656 Z M 725.019531 0.140625 " clip-rule="nonzero"/></clipPath><clipPath id="7b9236f3d2"><path d="M 760.378906 -68.175781 C 899.433594 -79.796875 933.019531 -83.917969 959.40625 -86.09375 C 979.496094 -87.742188 1002.136719 -89.691406 1012.40625 -89.539062 C 1016.679688 -89.464844 1018.476562 -89.316406 1021.402344 -88.640625 C 1024.324219 -87.964844 1027.246094 -86.992188 1029.945312 -85.644531 C 1032.570312 -84.292969 1035.195312 -82.644531 1037.441406 -80.695312 C 1039.765625 -78.746094 1041.867188 -76.496094 1043.664062 -74.097656 C 1045.390625 -71.625 1046.886719 -68.925781 1048.011719 -66.152344 C 1049.136719 -63.378906 1049.960938 -60.378906 1050.410156 -57.457031 C 1050.859375 -54.457031 1050.859375 -51.382812 1050.636719 -48.386719 C 1050.335938 -45.460938 1049.660156 -42.390625 1048.6875 -39.617188 C 1047.636719 -36.765625 1046.289062 -33.992188 1044.640625 -31.519531 C 1042.988281 -28.96875 1041.042969 -26.648438 1038.792969 -24.621094 C 1036.617188 -22.523438 1034.144531 -20.722656 1031.519531 -19.300781 C 1028.898438 -17.800781 1026.046875 -16.675781 1023.125 -15.851562 C 1020.277344 -15.101562 1017.351562 -14.203125 1014.203125 -14.578125 C 1010.382812 -14.953125 1005.882812 -17.949219 1001.761719 -19.226562 C 997.789062 -20.425781 993.664062 -20.574219 989.992188 -22.148438 C 986.316406 -23.722656 982.71875 -26.046875 979.722656 -28.671875 C 976.796875 -31.371094 974.097656 -34.667969 972.148438 -38.117188 C 970.199219 -41.5625 968.703125 -45.613281 967.953125 -49.511719 C 967.203125 -53.410156 967.050781 -57.679688 967.652344 -61.65625 C 968.175781 -65.550781 969.375 -69.675781 971.175781 -73.199219 C 972.972656 -76.796875 975.449219 -80.246094 978.222656 -83.09375 C 981.070312 -85.867188 984.519531 -88.417969 988.117188 -90.140625 C 991.640625 -91.941406 995.6875 -93.214844 999.660156 -93.738281 C 1003.632812 -94.261719 1007.90625 -94.1875 1011.804688 -93.4375 C 1015.703125 -92.6875 1019.75 -91.191406 1023.199219 -89.242188 C 1026.648438 -87.292969 1029.945312 -84.59375 1032.644531 -81.667969 C 1035.34375 -78.671875 1037.59375 -75.074219 1039.167969 -71.398438 C 1040.742188 -67.800781 1041.789062 -63.605469 1042.089844 -59.628906 C 1042.464844 -55.65625 1042.089844 -51.460938 1041.117188 -47.5625 C 1040.214844 -43.664062 1038.492188 -39.765625 1036.394531 -36.390625 C 1034.21875 -33.09375 1031.371094 -29.871094 1028.296875 -27.394531 C 1025.148438 -24.921875 1021.476562 -22.824219 1017.726562 -21.398438 C 1013.980469 -20.050781 1009.78125 -19.226562 1005.808594 -19.148438 C 1001.835938 -19 997.5625 -19.601562 993.8125 -20.722656 C 989.992188 -21.925781 986.167969 -23.796875 982.945312 -26.121094 C 979.644531 -28.445312 976.648438 -31.445312 974.324219 -34.742188 C 972 -37.964844 970.125 -41.789062 968.925781 -45.539062 C 967.800781 -49.359375 967.203125 -53.632812 967.277344 -57.605469 C 967.425781 -61.578125 968.175781 -65.777344 969.601562 -69.527344 C 970.949219 -73.273438 973.050781 -76.945312 975.523438 -80.09375 C 978.070312 -83.167969 981.21875 -86.019531 984.59375 -88.191406 C 987.890625 -90.289062 991.863281 -92.015625 995.6875 -92.988281 C 999.585938 -93.964844 1004.832031 -95.011719 1007.757812 -93.964844 C 1009.929688 -93.214844 1010.382812 -90.441406 1012.40625 -89.539062 C 1014.730469 -88.417969 1018.476562 -89.316406 1021.402344 -88.640625 C 1024.324219 -87.964844 1027.246094 -86.992188 1029.945312 -85.644531 C 1032.570312 -84.292969 1035.195312 -82.644531 1037.441406 -80.695312 C 1039.765625 -78.746094 1041.867188 -76.496094 1043.589844 -74.097656 C 1045.390625 -71.625 1046.886719 -68.925781 1048.011719 -66.152344 C 1049.136719 -63.378906 1049.960938 -60.378906 1050.410156 -57.457031 C 1050.785156 -54.457031 1050.859375 -51.382812 1050.636719 -48.386719 C 1050.335938 -45.460938 1049.660156 -42.390625 1048.6875 -39.617188 C 1047.636719 -36.765625 1046.289062 -33.992188 1044.640625 -31.519531 C 1042.988281 -28.96875 1041.042969 -26.648438 1038.792969 -24.621094 C 1036.617188 -22.523438 1034.144531 -20.722656 1031.519531 -19.300781 C 1028.898438 -17.800781 1026.046875 -16.675781 1023.125 -15.851562 C 1020.277344 -15.101562 1018.402344 -15.027344 1014.203125 -14.578125 C 1004.683594 -13.601562 985.417969 -13.003906 967.050781 -11.503906 C 941.339844 -9.40625 906.480469 -5.132812 874.324219 -2.285156 C 839.464844 0.941406 781.667969 6.414062 765.476562 6.636719 C 760.828125 6.710938 759.402344 6.636719 756.480469 6.113281 C 753.480469 5.664062 750.558594 4.761719 747.785156 3.488281 C 745.085938 2.289062 742.386719 0.714844 740.0625 -1.085938 C 737.664062 -2.882812 735.488281 -5.058594 733.617188 -7.457031 C 731.742188 -9.78125 730.09375 -12.402344 728.894531 -15.101562 C 727.617188 -17.875 726.644531 -20.800781 726.121094 -23.722656 C 725.519531 -26.648438 725.296875 -29.796875 725.519531 -32.71875 C 725.667969 -35.71875 726.195312 -38.789062 727.019531 -41.640625 C 727.917969 -44.488281 729.191406 -47.335938 730.691406 -49.886719 C 732.191406 -52.507812 734.140625 -54.90625 736.238281 -57.082031 C 738.339844 -59.179688 740.738281 -61.128906 743.285156 -62.703125 C 745.835938 -64.277344 748.609375 -65.550781 751.457031 -66.453125 C 754.304688 -67.351562 760.378906 -68.175781 760.378906 -68.175781 " clip-rule="nonzero"/></clipPath><clipPath id="e557533195"><path d="M 760.105469 0.140625 L 1017.1875 0.140625 L 1017.1875 51 L 760.105469 51 Z M 760.105469 0.140625 " clip-rule="nonzero"/></clipPath><clipPath id="5f4cc8d170"><path d="M 797.933594 -24.546875 C 827.171875 -26.496094 863.003906 -37.964844 888.640625 -44.039062 C 914.203125 -50.035156 964.503906 -62.855469 965.328125 -60.828125 C 965.554688 -60.082031 956.105469 -55.582031 956.105469 -55.582031 C 956.183594 -55.582031 962.929688 -60.15625 966.675781 -61.578125 C 970.425781 -62.929688 974.625 -63.753906 978.597656 -63.828125 C 982.570312 -63.976562 986.84375 -63.378906 990.589844 -62.179688 C 994.414062 -61.054688 998.238281 -59.179688 1001.460938 -56.855469 C 1004.757812 -54.53125 1007.757812 -51.460938 1010.082031 -48.234375 C 1012.40625 -45.011719 1014.277344 -41.191406 1015.476562 -37.367188 C 1016.601562 -33.542969 1017.203125 -29.34375 1017.128906 -25.371094 C 1016.976562 -21.398438 1016.226562 -17.203125 1014.804688 -13.453125 C 1013.453125 -9.703125 1011.355469 -6.03125 1008.882812 -2.882812 C 1006.332031 0.191406 1003.183594 3.039062 999.8125 5.210938 C 996.4375 7.3125 992.539062 9.035156 988.714844 10.011719 C 984.820312 10.984375 980.546875 11.285156 976.574219 10.984375 C 972.597656 10.683594 968.476562 9.636719 964.804688 8.0625 C 961.128906 6.488281 957.605469 4.164062 954.609375 1.539062 C 951.609375 -1.160156 948.984375 -4.457031 947.035156 -7.90625 C 945.011719 -11.429688 943.589844 -15.402344 942.839844 -19.300781 C 942.089844 -23.199219 941.9375 -27.472656 942.464844 -31.445312 C 943.0625 -35.417969 944.261719 -39.464844 946.0625 -43.0625 C 947.863281 -46.585938 950.335938 -50.035156 953.109375 -52.882812 C 955.957031 -55.734375 959.40625 -58.207031 963.003906 -59.929688 C 966.527344 -61.730469 970.648438 -63.003906 974.546875 -63.527344 C 978.519531 -64.054688 982.792969 -63.976562 986.691406 -63.230469 C 990.589844 -62.402344 994.640625 -60.980469 998.085938 -59.03125 C 1001.535156 -57.082031 1004.832031 -54.382812 1007.53125 -51.382812 C 1010.230469 -48.460938 1012.480469 -44.863281 1014.054688 -41.191406 C 1015.628906 -37.515625 1016.679688 -33.394531 1016.976562 -29.421875 C 1017.277344 -25.445312 1016.976562 -21.175781 1016.003906 -17.351562 C 1015.027344 -13.453125 1013.378906 -9.554688 1011.207031 -6.179688 C 1009.03125 -2.808594 1007.15625 0.117188 1003.109375 2.8125 C 996.511719 7.3125 983.46875 10.835938 972.75 14.207031 C 961.203125 17.882812 948.386719 21.105469 936.015625 23.730469 C 923.648438 26.425781 913.527344 27.253906 898.460938 30.324219 C 875.523438 34.972656 828.445312 48.542969 811.878906 50.414062 C 805.28125 51.164062 802.058594 50.640625 797.933594 50.414062 C 794.636719 50.191406 791.863281 50.039062 789.015625 49.292969 C 786.089844 48.617188 783.167969 47.492188 780.542969 46.144531 C 777.917969 44.71875 775.296875 42.996094 773.121094 40.96875 C 770.871094 39.019531 768.773438 36.699219 767.125 34.222656 C 765.402344 31.75 763.976562 29.050781 762.925781 26.203125 C 761.878906 23.429688 761.128906 20.429688 760.753906 17.433594 C 760.378906 14.507812 760.378906 11.359375 760.753906 8.4375 C 761.128906 5.4375 761.878906 2.4375 762.925781 -0.335938 C 763.976562 -3.183594 765.402344 -5.882812 767.125 -8.355469 C 768.773438 -10.828125 770.871094 -13.152344 773.121094 -15.101562 C 775.371094 -17.125 777.917969 -18.851562 780.542969 -20.273438 C 783.167969 -21.625 786.089844 -22.75 789.015625 -23.5 C 791.863281 -24.171875 797.933594 -24.546875 797.933594 -24.546875 " clip-rule="nonzero"/></clipPath><clipPath id="8f3f83dd45"><path d="M 926 0.140625 L 1024 0.140625 L 1024 15.78125 L 926 15.78125 Z M 926 0.140625 " clip-rule="nonzero"/></clipPath><clipPath id="dd4feac5af"><path d="M 1037.90625 -60.34375 C 1048.253906 -54.945312 1012.269531 -38.453125 1010.472656 -26.535156 C 1008.820312 -15.515625 1027.5625 5.851562 1032.433594 9.523438 C 1033.933594 10.648438 1036.183594 10.574219 1036.183594 10.496094 C 1036.183594 10.421875 1030.335938 9 1027.5625 7.722656 C 1024.863281 6.523438 1022.238281 4.875 1019.917969 3 C 1017.59375 1.128906 1015.417969 -1.046875 1013.542969 -3.445312 C 1011.746094 -5.84375 1010.171875 -8.46875 1008.972656 -11.242188 C 1007.773438 -13.941406 1006.871094 -16.9375 1006.347656 -19.863281 C 1005.898438 -22.859375 1005.671875 -25.933594 1005.898438 -28.933594 C 1006.121094 -31.855469 1006.722656 -34.929688 1007.621094 -37.777344 C 1008.523438 -40.628906 1009.871094 -43.402344 1011.445312 -45.949219 C 1013.019531 -48.5 1014.894531 -50.972656 1017.066406 -53.070312 C 1019.167969 -55.171875 1021.640625 -57.042969 1024.1875 -58.542969 C 1026.8125 -60.042969 1029.660156 -61.316406 1032.511719 -62.140625 C 1035.359375 -63.042969 1038.433594 -63.566406 1041.429688 -63.714844 C 1044.355469 -63.867188 1047.800781 -63.566406 1050.425781 -63.117188 C 1052.523438 -62.742188 1054.097656 -62.292969 1056.125 -61.542969 C 1058.597656 -60.566406 1061.746094 -59.21875 1064.21875 -57.570312 C 1066.769531 -55.996094 1069.167969 -53.972656 1071.191406 -51.871094 C 1073.289062 -49.699219 1075.089844 -47.148438 1076.589844 -44.601562 C 1078.085938 -41.976562 1079.289062 -39.128906 1080.113281 -36.28125 C 1080.863281 -33.355469 1081.386719 -30.28125 1081.460938 -27.359375 C 1081.609375 -24.359375 1081.3125 -21.210938 1080.710938 -18.289062 C 1080.113281 -15.363281 1079.0625 -12.441406 1077.789062 -9.742188 C 1076.511719 -7.042969 1074.789062 -4.496094 1072.914062 -2.171875 C 1070.964844 0.152344 1068.71875 2.25 1066.320312 4.050781 C 1063.917969 5.851562 1061.296875 7.347656 1058.523438 8.546875 C 1055.75 9.671875 1052.75 10.574219 1049.828125 11.023438 C 1046.828125 11.472656 1044.953125 11.621094 1040.757812 11.324219 C 1030.636719 10.496094 1005 5.699219 989.480469 1.351562 C 975.988281 -2.394531 959.644531 -9.292969 952.597656 -12.214844 C 949.75 -13.492188 948.777344 -13.789062 946.601562 -15.140625 C 943.679688 -16.863281 939.628906 -19.488281 936.855469 -22.335938 C 934.082031 -25.183594 931.609375 -28.707031 929.886719 -32.304688 C 928.160156 -35.90625 927.035156 -39.953125 926.511719 -43.925781 C 926.0625 -47.898438 926.210938 -52.097656 927.035156 -56.070312 C 927.785156 -59.96875 929.359375 -63.941406 931.308594 -67.390625 C 933.332031 -70.835938 936.03125 -74.0625 939.03125 -76.683594 C 942.105469 -79.308594 945.703125 -81.558594 949.375 -83.132812 C 953.046875 -84.628906 957.171875 -85.605469 961.144531 -85.90625 C 965.191406 -86.128906 969.390625 -85.753906 973.289062 -84.707031 C 977.113281 -83.730469 981.011719 -82.007812 984.308594 -79.757812 C 987.683594 -77.585938 990.753906 -74.734375 993.230469 -71.585938 C 995.703125 -68.4375 997.726562 -64.691406 999.078125 -60.941406 C 1000.425781 -57.195312 1001.175781 -52.996094 1001.175781 -49.023438 C 1001.25 -44.976562 1000.652344 -40.777344 999.375 -37.027344 C 998.175781 -33.207031 996.226562 -29.382812 993.828125 -26.234375 C 991.503906 -23.011719 988.429688 -20.011719 985.132812 -17.761719 C 981.910156 -15.441406 978.085938 -13.640625 974.261719 -12.515625 C 970.441406 -11.390625 966.167969 -10.867188 962.195312 -11.015625 C 958.222656 -11.167969 954.023438 -12.066406 950.351562 -13.492188 C 946.601562 -14.914062 942.929688 -17.015625 939.855469 -19.5625 C 936.78125 -22.113281 933.933594 -25.335938 931.835938 -28.707031 C 929.734375 -32.082031 928.160156 -36.054688 927.261719 -39.953125 C 926.285156 -43.777344 926.0625 -48.046875 926.4375 -52.023438 C 926.8125 -55.996094 927.859375 -60.117188 929.511719 -63.789062 C 931.085938 -67.390625 933.484375 -70.988281 936.183594 -73.910156 C 938.878906 -76.835938 942.253906 -79.457031 945.703125 -81.332031 C 949.226562 -83.28125 953.199219 -84.707031 957.171875 -85.378906 C 961.070312 -86.054688 963.992188 -86.429688 969.316406 -85.53125 C 980.261719 -83.730469 1003.125 -72.410156 1018.566406 -68.289062 C 1031.761719 -64.839844 1048.253906 -64.089844 1056.125 -61.542969 C 1059.871094 -60.269531 1061.746094 -59.21875 1064.21875 -57.570312 C 1066.769531 -55.996094 1069.167969 -54.046875 1071.191406 -51.871094 C 1073.289062 -49.699219 1075.089844 -47.148438 1076.589844 -44.601562 C 1078.085938 -41.976562 1079.289062 -39.128906 1080.113281 -36.28125 C 1080.863281 -33.355469 1081.386719 -30.28125 1081.460938 -27.359375 C 1081.609375 -24.359375 1081.3125 -21.210938 1080.710938 -18.289062 C 1080.113281 -15.363281 1079.0625 -12.441406 1077.789062 -9.742188 C 1076.511719 -7.042969 1074.789062 -4.496094 1072.914062 -2.171875 C 1071.042969 0.152344 1068.792969 2.25 1066.394531 4.050781 C 1063.917969 5.851562 1061.296875 7.347656 1058.523438 8.546875 C 1055.75 9.671875 1052.75 10.496094 1049.828125 11.023438 C 1046.828125 11.472656 1043.753906 11.546875 1040.757812 11.324219 C 1037.832031 11.023438 1031.910156 9.375 1031.910156 9.449219 C 1031.910156 9.449219 1036.183594 10.574219 1036.183594 10.496094 C 1036.257812 10.421875 1030.335938 9 1027.5625 7.722656 C 1024.863281 6.523438 1022.238281 4.875 1019.917969 3 C 1017.59375 1.128906 1015.417969 -1.046875 1013.621094 -3.445312 C 1011.746094 -5.84375 1010.171875 -8.46875 1008.972656 -11.242188 C 1007.773438 -13.941406 1006.871094 -16.9375 1006.347656 -19.863281 C 1005.898438 -22.785156 1005.671875 -25.933594 1005.898438 -28.933594 C 1006.121094 -31.855469 1006.722656 -34.929688 1007.621094 -37.777344 C 1008.523438 -40.628906 1009.871094 -43.402344 1011.445312 -45.949219 C 1013.019531 -48.5 1014.894531 -50.972656 1017.066406 -53.070312 C 1019.167969 -55.09375 1021.640625 -57.042969 1024.1875 -58.542969 C 1026.8125 -60.042969 1029.660156 -61.316406 1032.511719 -62.140625 C 1035.359375 -63.042969 1038.433594 -63.566406 1041.429688 -63.714844 C 1044.355469 -63.867188 1047.203125 -63.789062 1050.425781 -63.117188 C 1054.324219 -62.214844 1059.121094 -61.992188 1063.171875 -58.46875 C 1070.214844 -52.171875 1084.460938 -32.605469 1082.136719 -21.0625 C 1079.4375 -7.71875 1049.226562 12.222656 1039.03125 15.21875 C 1034.535156 16.570312 1031.460938 14.621094 1028.011719 13.945312 C 1024.9375 13.347656 1022.089844 12.820312 1019.316406 11.695312 C 1016.46875 10.574219 1013.769531 9.148438 1011.296875 7.425781 C 1008.894531 5.699219 1006.574219 3.601562 1004.625 1.351562 C 1002.675781 -0.898438 1000.949219 -3.519531 999.601562 -6.144531 C 998.25 -8.84375 997.203125 -11.765625 996.453125 -14.691406 C 995.777344 -17.539062 995.476562 -20.613281 995.476562 -23.609375 C 995.554688 -26.609375 995.929688 -29.683594 996.675781 -32.605469 C 997.425781 -35.453125 998.550781 -38.378906 999.976562 -41.003906 C 1001.398438 -43.625 1003.199219 -46.175781 1005.222656 -48.347656 C 1007.246094 -50.597656 1009.570312 -52.621094 1012.046875 -54.269531 C 1014.519531 -55.996094 1017.292969 -57.34375 1020.140625 -58.394531 C 1022.914062 -59.441406 1025.914062 -60.117188 1028.910156 -60.417969 C 1031.910156 -60.792969 1037.980469 -60.34375 1037.980469 -60.34375 " clip-rule="nonzero"/></clipPath></defs><g clip-path="url(#8bddda22b7)"><path fill="#ffffff" d="M 0 0.140625 L 1024 0.140625 L 1024 575.859375 L 0 575.859375 Z M 0 0.140625 " fill-opacity="1" fill-rule="nonzero"/><path fill="#e9e9e9" d="M 0 0.140625 L 1024 0.140625 L 1024 575.859375 L 0 575.859375 Z M 0 0.140625 " fill-opacity="1" fill-rule="nonzero"/></g><g clip-path="url(#674ad320b4)"><g clip-path="url(#d2426ae474)"><path fill="#fbfbfb" d="M -22.613281 -142.464844 L 1293.066406 -142.464844 L 1293.066406 131.011719 L -22.613281 131.011719 Z M -22.613281 -142.464844 " fill-opacity="1" fill-rule="nonzero"/></g></g><g clip-path="url(#f3d8c4d464)"><g clip-path="url(#91fff067d5)"><path fill="#fbfbfb" d="M -80.335938 -220.875 L 1114.847656 -220.875 L 1114.847656 74.554688 L -80.335938 74.554688 Z M -80.335938 -220.875 " fill-opacity="1" fill-rule="nonzero"/></g></g><g clip-path="url(#10a24c384b)"><g clip-path="url(#a1602d0e54)"><path fill="#fbfbfb" d="M 222.140625 -92.765625 L 839.253906 -92.765625 L 839.253906 115.183594 L 222.140625 115.183594 Z M 222.140625 -92.765625 " fill-opacity="1" fill-rule="nonzero"/></g></g><g clip-path="url(#943aaf7813)"><g clip-path="url(#0ce24c96c6)"><path fill="#fbfbfb" d="M 518.847656 -138.265625 L 789.761719 -138.265625 L 789.761719 66.792969 L 518.847656 66.792969 Z M 518.847656 -138.265625 " fill-opacity="1" fill-rule="nonzero"/></g></g><g clip-path="url(#adbd4d9e9d)"><g clip-path="url(#7b9236f3d2)"><path fill="#fbfbfb" d="M 722.519531 -96.960938 L 1053.558594 -96.960938 L 1053.558594 9.636719 L 722.519531 9.636719 Z M 722.519531 -96.960938 " fill-opacity="1" fill-rule="nonzero"/></g></g><g clip-path="url(#e557533195)"><g clip-path="url(#5f4cc8d170)"><path fill="#fbfbfb" d="M 757.753906 -66.828125 L 1020.007812 -66.828125 L 1020.007812 53.488281 L 757.753906 53.488281 Z M 757.753906 -66.828125 " fill-opacity="1" fill-rule="nonzero"/></g></g><g clip-path="url(#8f3f83dd45)"><g clip-path="url(#dd4feac5af)"><path fill="#fbfbfb" d="M 923.4375 -88.902344 L 1085.070312 -88.902344 L 1085.070312 18.292969 L 923.4375 18.292969 Z M 923.4375 -88.902344 " fill-opacity="1" fill-rule="nonzero"/></g></g></svg>