<svg xmlns="http://www.w3.org/2000/svg" xmlns:xlink="http://www.w3.org/1999/xlink" width="500" zoomAndPan="magnify" viewBox="0 0 375 374.999991" height="500" preserveAspectRatio="xMidYMid meet" version="1.0"><defs><clipPath id="e8465dfd05"><path d="M 241 114 L 287.292969 114 L 287.292969 261.34375 L 241 261.34375 Z M 241 114 " clip-rule="nonzero"/></clipPath><clipPath id="45b2432c68"><path d="M 87.792969 114 L 134 114 L 134 261.34375 L 87.792969 261.34375 Z M 87.792969 114 " clip-rule="nonzero"/></clipPath></defs><path fill="#292966" d="M 187.449219 168.011719 C 176.332031 168.011719 167.324219 177.023438 167.324219 188.140625 C 167.324219 199.253906 176.332031 208.265625 187.449219 208.265625 C 198.566406 208.265625 207.578125 199.253906 207.578125 188.140625 C 207.578125 177.023438 198.566406 168.011719 187.449219 168.011719 Z M 187.449219 168.011719 " fill-opacity="1" fill-rule="nonzero"/><path fill="#292966" d="M 231.074219 144.578125 C 227.324219 140.796875 221.21875 140.765625 217.441406 144.511719 C 213.660156 148.257812 213.628906 154.363281 217.375 158.148438 C 225.367188 166.21875 229.769531 176.867188 229.769531 188.140625 C 229.769531 199.410156 225.367188 210.0625 217.375 218.132812 C 213.628906 221.914062 213.660156 228.019531 217.441406 231.765625 C 219.320312 233.625 221.773438 234.554688 224.226562 234.554688 C 226.707031 234.554688 229.191406 233.601562 231.074219 231.699219 C 242.667969 219.996094 249.050781 204.523438 249.050781 188.140625 C 249.050781 171.753906 242.667969 156.28125 231.074219 144.578125 Z M 231.074219 144.578125 " fill-opacity="1" fill-rule="nonzero"/><g clip-path="url(#e8465dfd05)"><path fill="#292966" d="M 257.9375 117.652344 C 254.175781 113.886719 248.070312 113.886719 244.304688 117.652344 C 240.539062 121.414062 240.539062 127.519531 244.304688 131.285156 C 259.472656 146.453125 267.828125 166.648438 267.828125 188.140625 C 267.828125 209.628906 259.472656 229.824219 244.304688 244.996094 C 240.539062 248.761719 240.539062 254.863281 244.304688 258.625 C 246.1875 260.507812 248.652344 261.449219 251.121094 261.449219 C 253.585938 261.449219 256.058594 260.507812 257.9375 258.625 C 276.75 239.816406 287.105469 214.78125 287.105469 188.140625 C 287.105469 161.5 276.75 136.464844 257.9375 117.652344 Z M 257.9375 117.652344 " fill-opacity="1" fill-rule="nonzero"/></g><path fill="#292966" d="M 157.550781 144.511719 C 153.769531 140.769531 147.667969 140.800781 143.917969 144.578125 C 132.324219 156.28125 125.941406 171.753906 125.941406 188.140625 C 125.941406 204.523438 132.324219 219.996094 143.917969 231.699219 C 145.804688 233.601562 148.285156 234.554688 150.765625 234.554688 C 153.21875 234.554688 155.671875 233.625 157.550781 231.765625 C 161.332031 228.019531 161.363281 221.914062 157.617188 218.132812 C 149.625 210.0625 145.222656 199.410156 145.222656 188.140625 C 145.222656 176.867188 149.625 166.21875 157.617188 158.148438 C 161.363281 154.363281 161.332031 148.257812 157.550781 144.511719 Z M 157.550781 144.511719 " fill-opacity="1" fill-rule="nonzero"/><g clip-path="url(#45b2432c68)"><path fill="#292966" d="M 107.164062 188.140625 C 107.164062 166.648438 115.519531 146.453125 130.6875 131.285156 C 134.453125 127.519531 134.453125 121.414062 130.6875 117.652344 C 126.921875 113.886719 120.816406 113.886719 117.054688 117.652344 C 98.246094 136.464844 87.886719 161.5 87.886719 188.140625 C 87.886719 214.78125 98.246094 239.816406 117.054688 258.625 C 118.9375 260.507812 121.40625 261.449219 123.871094 261.449219 C 126.339844 261.449219 128.804688 260.507812 130.6875 258.625 C 134.453125 254.863281 134.453125 248.761719 130.6875 244.996094 C 115.519531 229.824219 107.164062 209.628906 107.164062 188.140625 Z M 107.164062 188.140625 " fill-opacity="1" fill-rule="nonzero"/></g></svg>